<svg width="3282" height="3282" viewBox="0 0 3282 3282" fill="none" xmlns="http://www.w3.org/2000/svg">
<circle cx="1641" cy="1641" r="1641" fill="white"/>
<path d="M2360.79 2359.9L2356.2 2335.92L2360.79 2359.9ZM330.62 2408.03C317.139 2407.69 305.932 2418.34 305.59 2431.82C305.247 2445.31 315.898 2456.51 329.38 2456.85L330.62 2408.03ZM2177.65 1402.71C2161.68 1421.18 2161.68 1421.18 2161.68 1421.18C2161.68 1421.19 2161.69 1421.19 2161.69 1421.19C2161.7 1421.2 2161.72 1421.22 2161.74 1421.24C2161.79 1421.28 2161.86 1421.34 2161.96 1421.43C2162.16 1421.6 2162.46 1421.86 2162.86 1422.21C2163.67 1422.91 2164.87 1423.97 2166.46 1425.36C2169.63 1428.14 2174.3 1432.28 2180.28 1437.64C2192.25 1448.36 2209.44 1463.97 2230.27 1483.48C2271.93 1522.51 2328.04 1577.04 2385.86 1639.08C2443.73 1701.18 2503 1770.45 2551.19 1838.97C2599.68 1907.93 2635.58 1974.23 2648.75 2030.6L2696.3 2019.49C2680.98 1953.92 2640.78 1881.47 2591.14 1810.88C2541.2 1739.86 2480.31 1668.79 2421.58 1605.78C2362.81 1542.72 2305.87 1487.39 2263.65 1447.84C2242.53 1428.05 2225.07 1412.19 2212.87 1401.26C2206.77 1395.79 2201.98 1391.56 2198.7 1388.68C2197.06 1387.24 2195.8 1386.14 2194.95 1385.39C2194.52 1385.02 2194.19 1384.74 2193.97 1384.54C2193.86 1384.44 2193.77 1384.37 2193.71 1384.32C2193.68 1384.29 2193.66 1384.27 2193.64 1384.26C2193.64 1384.25 2193.63 1384.25 2193.63 1384.24C2193.62 1384.24 2193.62 1384.23 2177.65 1402.71ZM2648.75 2030.6C2662.27 2088.49 2660.69 2133.17 2649.77 2168.14C2638.91 2202.87 2618.25 2229.94 2590.24 2251.83C2532.84 2296.69 2446.31 2318.71 2356.2 2335.92L2365.37 2383.89C2454.61 2366.84 2552.44 2343.36 2620.31 2290.31C2654.94 2263.25 2682.15 2228.26 2696.38 2182.7C2710.54 2137.38 2711.26 2083.52 2696.3 2019.49L2648.75 2030.6ZM2356.2 2335.92C2285.97 2349.34 1752.23 2444.15 330.62 2408.03L329.38 2456.85C1753.31 2493.03 2290.72 2398.15 2365.37 2383.89L2356.2 2335.92Z" fill="#F7AA00"/>
<path d="M1108.5 1876.5C883.852 1622.48 753.817 1467 753.817 1467C753.817 1467 346.159 978.386 986.037 837.026C1118.71 807.717 2596.83 837.026 2881.71 837.026" stroke="#235784" stroke-width="48.8365" stroke-linecap="round"/>
<path d="M1285.57 1389.35H2865.43" stroke="#235784" stroke-width="48.8365" stroke-linecap="round"/>
<path d="M330 1867.11C316.514 1867.11 305.582 1878.04 305.582 1891.52C305.582 1905.01 316.514 1915.94 330 1915.94L330 1867.11ZM330 1915.94L1863.47 1915.94L1863.47 1867.11L330 1867.11L330 1915.94Z" fill="#F7AA00"/>
<path d="M1286 1389L1853 1892" stroke="#235784" stroke-width="48.8365" stroke-linecap="round"/>
<path d="M1482.5 1869.32C1306.85 1711.09 1109.42 1488.39 1109.42 1488.39C1109.42 1488.39 852.745 1195.67 1068.3 1112.15C1194.41 1063.29 2660.32 1079.57 2876.01 1079.57" stroke="#F7AA00" stroke-width="48.8365" stroke-linecap="round"/>
<path d="M2147.67 2131.53L2155.51 2154.66L2155.51 2154.66L2147.67 2131.53ZM362.558 2165.73C349.072 2165.73 338.139 2176.67 338.139 2190.15C338.139 2203.64 349.072 2214.57 362.558 2214.57V2165.73ZM1736 1385C1719.58 1403.07 1719.58 1403.07 1719.58 1403.07C1719.58 1403.08 1719.59 1403.08 1719.59 1403.08C1719.6 1403.09 1719.61 1403.1 1719.63 1403.12C1719.67 1403.15 1719.72 1403.2 1719.79 1403.26C1719.93 1403.39 1720.14 1403.58 1720.42 1403.84C1720.97 1404.34 1721.8 1405.09 1722.89 1406.08C1725.06 1408.05 1728.26 1410.96 1732.37 1414.71C1740.6 1422.2 1752.49 1433.03 1767.14 1446.39C1796.42 1473.1 1836.71 1509.92 1880.71 1550.31C1968.78 1631.17 2071.48 1726.15 2130.72 1783.28L2164.62 1748.13C2104.88 1690.52 2001.75 1595.14 1913.73 1514.34C1869.69 1473.9 1829.36 1437.05 1800.05 1410.31C1785.39 1396.94 1773.49 1386.1 1765.25 1378.59C1761.13 1374.84 1757.92 1371.93 1755.74 1369.95C1754.66 1368.96 1753.83 1368.21 1753.27 1367.7C1752.99 1367.44 1752.78 1367.25 1752.64 1367.12C1752.56 1367.06 1752.51 1367.01 1752.48 1366.98C1752.46 1366.96 1752.44 1366.95 1752.44 1366.94C1752.43 1366.94 1752.43 1366.93 1752.42 1366.93C1752.42 1366.93 1752.42 1366.93 1736 1385ZM2130.72 1783.28C2187.79 1838.33 2229.88 1909.28 2237.17 1971.07C2240.75 2001.41 2235.87 2028.5 2221.56 2051.05C2207.27 2073.57 2181.92 2094.13 2139.83 2108.41L2155.51 2154.66C2205.6 2137.67 2241.22 2111.21 2262.8 2077.22C2284.36 2043.24 2290.27 2004.3 2285.67 1965.34C2276.61 1888.54 2226.52 1807.84 2164.62 1748.13L2130.72 1783.28ZM2139.83 2108.41C2140.5 2108.18 2139.75 2108.47 2136.12 2109.03C2132.98 2109.52 2128.68 2110.06 2123.17 2110.65C2112.18 2111.83 2097.13 2113.1 2078.35 2114.47C2040.83 2117.18 1989.1 2120.18 1926.44 2123.31C1801.18 2129.58 1632.76 2136.38 1448.13 2142.67C1078.79 2155.24 645.084 2165.73 362.558 2165.73V2214.57C645.919 2214.57 1080.28 2204.06 1449.79 2191.47C1634.57 2185.18 1803.27 2178.37 1928.88 2172.09C1991.67 2168.95 2043.82 2165.93 2081.88 2163.17C2100.89 2161.8 2116.56 2160.47 2128.37 2159.21C2134.26 2158.58 2139.38 2157.94 2143.57 2157.29C2147.28 2156.72 2151.78 2155.92 2155.51 2154.66L2139.83 2108.41Z" fill="#235784"/>
</svg>
