<svg width="2602" height="1667" viewBox="0 0 2602 1667" fill="none" xmlns="http://www.w3.org/2000/svg">
<path d="M2055.79 1560.9L2051.2 1536.92L2055.79 1560.9ZM25.6202 1609.03C12.1387 1608.69 0.932146 1619.34 0.589621 1632.82C0.247095 1646.31 10.8983 1657.51 24.3798 1657.85L25.6202 1609.03ZM1872.65 603.708C1856.68 622.183 1856.68 622.182 1856.68 622.183C1856.68 622.185 1856.69 622.188 1856.69 622.192C1856.7 622.201 1856.72 622.215 1856.74 622.236C1856.79 622.276 1856.86 622.34 1856.96 622.426C1857.16 622.598 1857.46 622.86 1857.86 623.21C1858.67 623.912 1859.87 624.966 1861.46 626.358C1864.63 629.142 1869.3 633.277 1875.28 638.636C1887.25 649.355 1904.44 664.969 1925.27 684.477C1966.93 723.512 2023.04 778.042 2080.86 840.08C2138.73 902.176 2198 971.446 2246.19 1039.97C2294.68 1108.93 2330.58 1175.23 2343.75 1231.6L2391.3 1220.49C2375.98 1154.92 2335.78 1082.47 2286.14 1011.88C2236.2 940.861 2175.31 869.788 2116.58 806.783C2057.81 743.718 2000.87 688.388 1958.65 648.836C1937.53 629.051 1920.07 613.191 1907.87 602.259C1901.77 596.793 1896.98 592.558 1893.7 589.679C1892.06 588.239 1890.8 587.139 1889.95 586.393C1889.52 586.02 1889.19 585.736 1888.97 585.542C1888.86 585.445 1888.77 585.371 1888.71 585.319C1888.68 585.294 1888.66 585.274 1888.64 585.26C1888.64 585.253 1888.63 585.246 1888.63 585.243C1888.62 585.238 1888.62 585.234 1872.65 603.708ZM2343.75 1231.6C2357.27 1289.49 2355.69 1334.17 2344.77 1369.14C2333.91 1403.87 2313.25 1430.94 2285.24 1452.83C2227.84 1497.69 2141.31 1519.71 2051.2 1536.92L2060.37 1584.89C2149.61 1567.84 2247.44 1544.36 2315.31 1491.31C2349.94 1464.25 2377.15 1429.26 2391.38 1383.7C2405.54 1338.38 2406.26 1284.52 2391.3 1220.49L2343.75 1231.6ZM2051.2 1536.92C1980.97 1550.34 1447.23 1645.15 25.6202 1609.03L24.3798 1657.85C1448.31 1694.03 1985.72 1599.15 2060.37 1584.89L2051.2 1536.92Z" fill="#F7AA00"/>
<path d="M803.5 1077.5C578.852 823.484 448.817 668.002 448.817 668.002C448.817 668.002 41.1591 179.386 681.037 38.0265C813.71 8.71691 2291.83 38.0265 2576.71 38.0265" stroke="#235784" stroke-width="48.8365" stroke-linecap="round"/>
<path d="M980.567 590.354H2560.43" stroke="#235784" stroke-width="48.8365" stroke-linecap="round"/>
<path d="M25 1068.11C11.5142 1068.11 0.581742 1079.04 0.581743 1092.52C0.581744 1106.01 11.5142 1116.94 25 1116.94L25 1068.11ZM25 1116.94L1558.47 1116.94L1558.47 1068.11L25 1068.11L25 1116.94Z" fill="#F7AA00"/>
<path d="M981 590L1548 1093" stroke="#235784" stroke-width="48.8365" stroke-linecap="round"/>
<path d="M1177.5 1070.32C1001.85 912.088 804.423 689.393 804.423 689.393C804.423 689.393 547.744 396.673 763.302 313.154C889.406 264.295 2355.32 280.574 2571.01 280.574" stroke="#F7AA00" stroke-width="48.8365" stroke-linecap="round"/>
<path d="M1842.67 1332.53L1850.51 1355.66L1850.51 1355.66L1842.67 1332.53ZM57.5576 1366.73C44.0718 1366.73 33.1394 1377.67 33.1394 1391.15C33.1394 1404.64 44.0718 1415.57 57.5576 1415.57V1366.73ZM1431 586C1414.58 604.072 1414.58 604.073 1414.58 604.075C1414.58 604.077 1414.59 604.08 1414.59 604.084C1414.6 604.092 1414.61 604.104 1414.63 604.12C1414.67 604.152 1414.72 604.2 1414.79 604.264C1414.93 604.391 1415.14 604.582 1415.42 604.835C1415.97 605.341 1416.8 606.093 1417.89 607.08C1420.06 609.054 1423.26 611.964 1427.37 615.71C1435.6 623.201 1447.49 634.033 1462.14 647.389C1491.42 674.104 1531.71 710.917 1575.71 751.311C1663.78 832.173 1766.48 927.152 1825.72 984.285L1859.62 949.134C1799.88 891.518 1696.75 796.142 1608.73 715.337C1564.69 674.898 1524.36 638.048 1495.05 611.309C1480.39 597.939 1468.49 587.096 1460.25 579.594C1456.13 575.843 1452.92 572.928 1450.74 570.95C1449.66 569.96 1448.83 569.206 1448.27 568.698C1447.99 568.444 1447.78 568.252 1447.64 568.123C1447.56 568.058 1447.51 568.01 1447.48 567.977C1447.46 567.961 1447.44 567.949 1447.44 567.941C1447.43 567.936 1447.43 567.933 1447.42 567.931C1447.42 567.929 1447.42 567.928 1431 586ZM1825.72 984.285C1882.79 1039.33 1924.88 1110.28 1932.17 1172.07C1935.75 1202.41 1930.87 1229.5 1916.56 1252.05C1902.27 1274.57 1876.92 1295.13 1834.83 1309.41L1850.51 1355.66C1900.6 1338.67 1936.22 1312.21 1957.8 1278.22C1979.36 1244.24 1985.27 1205.3 1980.67 1166.34C1971.61 1089.54 1921.52 1008.84 1859.62 949.134L1825.72 984.285ZM1834.83 1309.41C1835.5 1309.18 1834.75 1309.47 1831.12 1310.03C1827.98 1310.52 1823.68 1311.06 1818.17 1311.65C1807.18 1312.83 1792.13 1314.1 1773.35 1315.47C1735.83 1318.18 1684.1 1321.18 1621.44 1324.31C1496.18 1330.58 1327.76 1337.38 1143.13 1343.67C773.792 1356.24 340.084 1366.73 57.5576 1366.73V1415.57C340.919 1415.57 775.279 1405.06 1144.79 1392.47C1329.57 1386.18 1498.27 1379.37 1623.88 1373.09C1686.67 1369.95 1738.82 1366.93 1776.88 1364.17C1795.89 1362.8 1811.56 1361.47 1823.37 1360.21C1829.26 1359.58 1834.38 1358.94 1838.57 1358.29C1842.28 1357.72 1846.78 1356.92 1850.51 1355.66L1834.83 1309.41Z" fill="#235784"/>
</svg>
