<svg width="3366" height="3282" viewBox="0 0 3366 3282" fill="none" xmlns="http://www.w3.org/2000/svg">
<circle cx="1725" cy="1641" r="1641" fill="white"/>
<path d="M2608.77 2490.59L2602.95 2460.15L2608.77 2490.59ZM31.7872 2551.69C14.6746 2551.25 0.44957 2564.77 0.0147866 2581.89C-0.419997 2599 13.1001 2613.22 30.2128 2613.66L31.7872 2551.69ZM2376.3 1275.58C2356.04 1299.03 2356.04 1299.03 2356.04 1299.03C2356.04 1299.03 2356.04 1299.04 2356.05 1299.04C2356.06 1299.05 2356.08 1299.07 2356.11 1299.1C2356.17 1299.15 2356.27 1299.23 2356.39 1299.34C2356.64 1299.56 2357.03 1299.89 2357.54 1300.34C2358.56 1301.23 2360.09 1302.56 2362.1 1304.33C2366.12 1307.87 2372.06 1313.11 2379.65 1319.92C2394.84 1333.52 2416.66 1353.34 2443.1 1378.1C2495.99 1427.65 2567.2 1496.87 2640.59 1575.62C2714.06 1654.44 2789.29 1742.37 2850.46 1829.35C2912.01 1916.89 2957.58 2001.04 2974.29 2072.59L3034.66 2058.49C3015.21 1975.26 2964.18 1883.3 2901.17 1793.69C2837.77 1703.54 2760.48 1613.33 2685.94 1533.35C2611.33 1453.3 2539.07 1383.07 2485.48 1332.86C2458.67 1307.75 2436.5 1287.62 2421.01 1273.74C2413.26 1266.8 2407.19 1261.43 2403.03 1257.77C2400.95 1255.95 2399.35 1254.55 2398.27 1253.6C2397.72 1253.13 2397.31 1252.77 2397.02 1252.52C2396.88 1252.4 2396.77 1252.3 2396.7 1252.24C2396.66 1252.21 2396.63 1252.18 2396.61 1252.16C2396.6 1252.15 2396.59 1252.15 2396.59 1252.14C2396.58 1252.14 2396.57 1252.13 2376.3 1275.58ZM2974.29 2072.59C2991.46 2146.07 2989.45 2202.79 2975.59 2247.18C2961.81 2291.27 2935.59 2325.62 2900.03 2353.41C2827.17 2410.35 2717.33 2438.3 2602.95 2460.15L2614.58 2521.04C2727.86 2499.4 2852.04 2469.59 2938.2 2402.25C2982.15 2367.91 3016.69 2323.49 3034.76 2265.66C3052.73 2208.13 3053.65 2139.77 3034.66 2058.49L2974.29 2072.59ZM2602.95 2460.15C2513.8 2477.18 1836.3 2597.53 31.7872 2551.69L30.2128 2613.66C1837.67 2659.58 2519.83 2539.14 2614.58 2521.04L2602.95 2460.15Z" fill="#F7AA00"/>
<path d="M1019.19 1876.99C734.03 1554.55 568.97 1357.19 568.97 1357.19C568.97 1357.19 51.5114 736.969 863.738 557.535C1032.15 520.331 2908.39 557.535 3270 557.535" stroke="#235784" stroke-width="61.9904" stroke-linecap="round"/>
<path d="M1243.95 1258.63H3249.34" stroke="#235784" stroke-width="61.9904" stroke-linecap="round"/>
<path d="M31 1865.06C13.8818 1865.06 0.0047862 1878.94 0.00478745 1896.06C0.00478869 1913.18 13.8818 1927.05 31 1927.05L31 1865.06ZM31 1927.05L1977.5 1927.05L1977.5 1865.06L31 1865.06L31 1927.05Z" fill="#F7AA00"/>
<path d="M1244.49 1258.18L1964.21 1896.66" stroke="#235784" stroke-width="61.9904" stroke-linecap="round"/>
<path d="M1493.92 1867.87C1270.96 1667.02 1020.36 1384.34 1020.36 1384.34C1020.36 1384.34 694.544 1012.78 968.161 906.767C1128.23 844.747 2988.98 865.411 3262.77 865.411" stroke="#F7AA00" stroke-width="61.9904" stroke-linecap="round"/>
<path d="M2338.25 2200.71L2348.21 2230.06L2348.21 2230.06L2338.25 2200.71ZM72.3269 2244.12C55.2087 2244.12 41.3317 2258 41.3317 2275.12C41.3317 2292.24 55.2087 2306.11 72.3269 2306.11V2244.12ZM1815.7 1253.1C1794.86 1276.04 1794.86 1276.04 1794.86 1276.05C1794.86 1276.05 1794.87 1276.05 1794.87 1276.06C1794.88 1276.07 1794.9 1276.08 1794.92 1276.1C1794.97 1276.14 1795.03 1276.2 1795.12 1276.29C1795.3 1276.45 1795.57 1276.69 1795.92 1277.01C1796.63 1277.65 1797.68 1278.61 1799.06 1279.86C1801.81 1282.37 1805.87 1286.06 1811.1 1290.82C1821.54 1300.32 1836.64 1314.07 1855.22 1331.03C1892.4 1364.94 1943.53 1411.67 1999.38 1462.94C2111.18 1565.58 2241.54 1686.14 2316.73 1758.66L2359.77 1714.05C2283.94 1640.91 2153.03 1519.85 2041.31 1417.28C1985.4 1365.94 1934.21 1319.17 1897 1285.23C1878.4 1268.26 1863.28 1254.49 1852.82 1244.97C1847.59 1240.21 1843.52 1236.51 1840.76 1234C1839.38 1232.74 1838.33 1231.79 1837.62 1231.14C1837.26 1230.82 1837 1230.57 1836.82 1230.41C1836.73 1230.33 1836.66 1230.27 1836.61 1230.23C1836.59 1230.21 1836.57 1230.19 1836.56 1230.18C1836.56 1230.17 1836.55 1230.17 1836.55 1230.17C1836.55 1230.16 1836.54 1230.16 1815.7 1253.1ZM2316.73 1758.66C2389.18 1828.53 2442.61 1918.6 2451.86 1997.02C2456.4 2035.54 2450.21 2069.93 2432.05 2098.55C2413.9 2127.14 2381.73 2153.24 2328.3 2171.36L2348.21 2230.06C2411.78 2208.5 2457 2174.92 2484.39 2131.77C2511.76 2088.63 2519.26 2039.21 2513.42 1989.76C2501.92 1892.26 2438.34 1789.83 2359.77 1714.05L2316.73 1758.66ZM2328.3 2171.36C2329.15 2171.07 2328.2 2171.44 2323.59 2172.15C2319.6 2172.76 2314.15 2173.45 2307.15 2174.2C2293.2 2175.7 2274.1 2177.32 2250.26 2179.05C2202.63 2182.5 2136.97 2186.3 2057.44 2190.28C1898.44 2198.23 1684.66 2206.86 1450.29 2214.84C981.476 2230.81 430.95 2244.12 72.3269 2244.12V2306.11C432.01 2306.11 983.364 2292.77 1452.4 2276.8C1686.95 2268.81 1901.09 2260.16 2060.54 2252.19C2140.23 2248.2 2206.43 2244.38 2254.74 2240.88C2278.87 2239.13 2298.77 2237.44 2313.75 2235.84C2321.22 2235.04 2327.73 2234.23 2333.05 2233.41C2337.76 2232.69 2343.46 2231.67 2348.21 2230.06L2328.3 2171.36Z" fill="#235784"/>
</svg>
